<svg width="24" height="31" viewBox="0 0 24 31" fill="none" xmlns="http://www.w3.org/2000/svg">
<path d="M17.71 2.79065C17.111 2.58965 16.481 2.50065 15.85 2.50065C14.46 2.49065 13.111 2.95065 12 3.79965C11.91 3.73065 11.8 3.66965 11.7 3.61065C11.6 3.54965 11.42 3.40065 11.27 3.32065L10.89 3.15065C10.69 3.04065 10.481 2.96065 10.26 2.88965C10.24 2.87065 10.21 2.84965 10.17 2.83065H10.111C9.52002 2.62965 8.91002 2.51965 8.28002 2.50065H8.17002C7.89002 2.50065 7.61102 2.51965 7.33002 2.56065H7.21002C6.91002 2.59965 6.61102 2.66965 6.32102 2.76965C2.59002 3.99065 1.26002 8.04065 2.39002 11.5806C3.03002 13.3896 4.06102 15.0306 5.40102 16.3796C7.35002 18.2596 9.48102 19.9196 11.77 21.3396L12.03 21.5006L12.28 21.3496C14.561 19.9196 16.68 18.2596 18.611 16.3896C19.96 15.0406 20.99 13.3896 21.62 11.5806C22.731 8.04065 21.401 3.99065 17.71 2.79065Z" fill="#92FDB0"/>
<circle cx="12" cy="29" r="2" fill="#92FDB0"/>
</svg>
